<svg width="28" height="29" viewBox="0 0 28 29" fill="none" xmlns="http://www.w3.org/2000/svg">
<path d="M13.9999 26.1667C7.55642 26.1667 2.33325 20.9435 2.33325 14.5C2.33325 8.05651 7.55642 2.83334 13.9999 2.83334C20.4434 2.83334 25.6666 8.05651 25.6666 14.5C25.6666 20.9435 20.4434 26.1667 13.9999 26.1667ZM13.9999 23.8333C15.2257 23.8333 16.4394 23.5919 17.5719 23.1228C18.7043 22.6538 19.7333 21.9662 20.6 21.0995C21.4667 20.2328 22.1543 19.2038 22.6233 18.0714C23.0924 16.9389 23.3338 15.7252 23.3338 14.4994C23.3338 13.2737 23.0924 12.0599 22.6233 10.9275C22.1543 9.79505 21.4667 8.76609 20.6 7.89935C19.7333 7.03262 18.7043 6.34509 17.5719 5.87601C16.4394 5.40694 15.2257 5.16551 13.9999 5.16551C11.5244 5.16551 9.15029 6.1489 7.39984 7.89935C5.64939 9.6498 4.666 12.0239 4.666 14.4994C4.666 16.9749 5.64939 19.3491 7.39984 21.0995C9.15029 22.85 11.5244 23.8333 13.9999 23.8333ZM13.9999 18C13.0717 18 12.1814 17.6313 11.525 16.9749C10.8687 16.3185 10.4999 15.4283 10.4999 14.5C10.4999 13.5718 10.8687 12.6815 11.525 12.0251C12.1814 11.3688 13.0717 11 13.9999 11C14.9282 11 15.8184 11.3688 16.4748 12.0251C17.1312 12.6815 17.4999 13.5718 17.4999 14.5C17.4999 15.4283 17.1312 16.3185 16.4748 16.9749C15.8184 17.6313 14.9282 18 13.9999 18Z" fill="#333333"/>
</svg>
