<svg width="24" height="25" viewBox="0 0 24 25" fill="none" xmlns="http://www.w3.org/2000/svg">
<g clip-path="url(#clip0_16_30)">
<path d="M12 7.2417C15.79 7.2417 19.17 9.3717 20.82 12.7417C19.17 16.1117 15.8 18.2417 12 18.2417C8.2 18.2417 4.83 16.1117 3.18 12.7417C4.83 9.3717 8.21 7.2417 12 7.2417ZM12 5.2417C7 5.2417 2.73 8.3517 1 12.7417C2.73 17.1317 7 20.2417 12 20.2417C17 20.2417 21.27 17.1317 23 12.7417C21.27 8.3517 17 5.2417 12 5.2417ZM12 10.2417C13.38 10.2417 14.5 11.3617 14.5 12.7417C14.5 14.1217 13.38 15.2417 12 15.2417C10.62 15.2417 9.5 14.1217 9.5 12.7417C9.5 11.3617 10.62 10.2417 12 10.2417ZM12 8.2417C9.52 8.2417 7.5 10.2617 7.5 12.7417C7.5 15.2217 9.52 17.2417 12 17.2417C14.48 17.2417 16.5 15.2217 16.5 12.7417C16.5 10.2617 14.48 8.2417 12 8.2417Z" fill="#62666A"/>
</g>
<defs>
<clipPath id="clip0_16_30">
<rect width="24" height="24" fill="white" transform="translate(0 0.741699)"/>
</clipPath>
</defs>
</svg>
