<svg width="22" height="21" viewBox="0 0 22 21" fill="none" xmlns="http://www.w3.org/2000/svg">
<path d="M17.7656 2.625H3.76562C3.53356 2.625 3.311 2.71719 3.14691 2.88128C2.98281 3.04538 2.89062 3.26794 2.89062 3.5V17.5C2.89062 17.7321 2.98281 17.9546 3.14691 18.1187C3.311 18.2828 3.53356 18.375 3.76562 18.375H17.7656C17.9977 18.375 18.2203 18.2828 18.3843 18.1187C18.5484 17.9546 18.6406 17.7321 18.6406 17.5V3.5C18.6406 3.26794 18.5484 3.04538 18.3843 2.88128C18.2203 2.71719 17.9977 2.625 17.7656 2.625Z" fill="#C63F3F"/>
<g clip-path="url(#clip0_78_221)">
<path d="M14.8483 7.00625L14.0258 6.125L10.765 9.61875L7.50414 6.125L6.68164 7.00625L9.94247 10.5L6.68164 13.9938L7.50414 14.875L10.765 11.3812L14.0258 14.875L14.8483 13.9938L11.5875 10.5L14.8483 7.00625Z" fill="white"/>
</g>
<defs>
<clipPath id="clip0_78_221">
<rect width="14" height="15" fill="white" transform="translate(3.76562 3)"/>
</clipPath>
</defs>
</svg>
