<svg width="23" height="22" viewBox="0 0 23 22" fill="none" xmlns="http://www.w3.org/2000/svg">
<path d="M19.1517 20.1666H4.48503C4.24191 20.1666 4.00875 20.0701 3.83684 19.8982C3.66494 19.7263 3.56836 19.4931 3.56836 19.25V2.74998C3.56836 2.50686 3.66494 2.27371 3.83684 2.1018C4.00875 1.92989 4.24191 1.83331 4.48503 1.83331H19.1517C19.3948 1.83331 19.628 1.92989 19.7999 2.1018C19.9718 2.27371 20.0684 2.50686 20.0684 2.74998V19.25C20.0684 19.4931 19.9718 19.7263 19.7999 19.8982C19.628 20.0701 19.3948 20.1666 19.1517 20.1666ZM18.235 18.3333V3.66665H5.40169V18.3333H18.235ZM8.15169 6.41665H15.485V8.24998H8.15169V6.41665ZM8.15169 10.0833H15.485V11.9166H8.15169V10.0833ZM8.15169 13.75H12.735V15.5833H8.15169V13.75Z" fill="white"/>
</svg>
