<svg width="30" height="30" viewBox="0 0 30 30" fill="none" xmlns="http://www.w3.org/2000/svg">
<path d="M10.8575 5.00126L14.1162 1.74251C14.3506 1.50817 14.6685 1.37653 15 1.37653C15.3314 1.37653 15.6493 1.50817 15.8837 1.74251L19.1425 5.00126H23.75C24.0815 5.00126 24.3994 5.13296 24.6339 5.36738C24.8683 5.6018 25 5.91974 25 6.25126V10.8588L28.2587 14.1175C28.4931 14.3519 28.6247 14.6698 28.6247 15.0013C28.6247 15.3327 28.4931 15.6506 28.2587 15.885L25 19.1438V23.7513C25 24.0828 24.8683 24.4007 24.6339 24.6351C24.3994 24.8696 24.0815 25.0013 23.75 25.0013H19.1425L15.8837 28.26C15.6493 28.4943 15.3314 28.626 15 28.626C14.6685 28.626 14.3506 28.4943 14.1162 28.26L10.8575 25.0013H6.24998C5.91846 25.0013 5.60051 24.8696 5.36609 24.6351C5.13167 24.4007 4.99998 24.0828 4.99998 23.7513V19.1438L1.74123 15.885C1.50689 15.6506 1.37524 15.3327 1.37524 15.0013C1.37524 14.6698 1.50689 14.3519 1.74123 14.1175L4.99998 10.8588V6.25126C4.99998 5.91974 5.13167 5.6018 5.36609 5.36738C5.60051 5.13296 5.91846 5.00126 6.24998 5.00126H10.8575ZM7.49998 7.50126V11.895L4.39373 15.0013L7.49998 18.1075V22.5013H11.8937L15 25.6075L18.1062 22.5013H22.5V18.1075L25.6062 15.0013L22.5 11.895V7.50126H18.1062L15 4.39501L11.8937 7.50126H7.49998ZM15 20.0013C13.6739 20.0013 12.4021 19.4745 11.4644 18.5368C10.5268 17.5991 9.99998 16.3273 9.99998 15.0013C9.99998 13.6752 10.5268 12.4034 11.4644 11.4657C12.4021 10.528 13.6739 10.0013 15 10.0013C16.3261 10.0013 17.5978 10.528 18.5355 11.4657C19.4732 12.4034 20 13.6752 20 15.0013C20 16.3273 19.4732 17.5991 18.5355 18.5368C17.5978 19.4745 16.3261 20.0013 15 20.0013ZM15 17.5013C15.663 17.5013 16.2989 17.2379 16.7677 16.769C17.2366 16.3002 17.5 15.6643 17.5 15.0013C17.5 14.3382 17.2366 13.7023 16.7677 13.2335C16.2989 12.7647 15.663 12.5013 15 12.5013C14.3369 12.5013 13.7011 12.7647 13.2322 13.2335C12.7634 13.7023 12.5 14.3382 12.5 15.0013C12.5 15.6643 12.7634 16.3002 13.2322 16.769C13.7011 17.2379 14.3369 17.5013 15 17.5013Z" fill="#F0F4F7"/>
</svg>
